# xmcd CD database file
#
# Track frame offsets:
#	182
#	19485
#	32692
#	74495
#	94137
#	126222
#	143157
#	160180
#
# Disc length: 2578 seconds
#
# Revision: 2
# Processed by: cddbd v1.4b41PL1 Copyright (c) Steve Scherf et al.
# Submitted via: Feurio! 1.52 - http://www.feurio.com
#
DISCID=6e0a1008
DTITLE=George Smith - No Time For Jive
DYEAR=1900
DGENRE=
TTITLE0=Someday You ´re Gonna Learn
TTITLE1=Blue Switch
TTITLE2=Mississipi River Blues
TTITLE3=Before You Do Your Thing (You´d Better Think)
TTITLE4=Don´t Want To Go, Baby
TTITLE5=Good Things
TTITLE6=Soul Feet
TTITLE7=No Time For Jive
EXTD=
EXTT0=
EXTT1=
EXTT2=
EXTT3=
EXTT4=
EXTT5=
EXTT6=
EXTT7=
PLAYORDER=
